HIERARCHY
ROOT Hips
{
	OFFSET 0.000000 0.000000 0.000000 
	CHANNELS 6 Xposition Yposition Zposition Zrotation Yrotation Xrotation
	JOINT LeftUpLeg
	{
		OFFSET 1.363060 -1.794630 0.839290 
		CHANNELS 3 Zrotation Yrotation Xrotation
		JOINT LeftLeg
		{
			OFFSET 2.448110 -6.726130 0.000000 
			CHANNELS 3 Zrotation Yrotation Xrotation
			JOINT LeftFoot
			{
				OFFSET 2.562200 -7.039590 0.000000 
				CHANNELS 3 Zrotation Yrotation Xrotation
				JOINT LeftToeBase
				{
					OFFSET 0.157640 -0.433110 2.322550 
					CHANNELS 3 Zrotation Yrotation Xrotation
					End Site
					{
						OFFSET 0.000000 0.000000 0.000000 
					}
				}
			}
		}
	}
	JOINT RightUpLeg
	{
		OFFSET -1.305520 -1.794630 0.839290 
		CHANNELS 3 Zrotation Yrotation Xrotation
		JOINT RightLeg
		{
			OFFSET -2.542530 -6.985550 0.000000 
			CHANNELS 3 Zrotation Yrotation Xrotation
			JOINT RightFoot
			{
				OFFSET -2.568260 -7.056230 0.000000 
				CHANNELS 3 Zrotation Yrotation Xrotation
				JOINT RightToeBase
				{
					OFFSET -0.164730 -0.452590 2.363150 
					CHANNELS 3 Zrotation Yrotation Xrotation
					End Site
					{
						OFFSET 0.000000 0.000000 0.000000 
					}
				}
			}
		}
	}
	JOINT Spine
	{
		OFFSET 0.028270 2.035590 -0.193380 
		CHANNELS 3 Zrotation Yrotation Xrotation
		JOINT Spine1
		{
			OFFSET 0.056720 2.048850 -0.042750 
			CHANNELS 3 Zrotation Yrotation Xrotation
			JOINT Neck1
			{
				OFFSET -0.054170 1.746240 0.172020 
				CHANNELS 3 Zrotation Yrotation Xrotation
				JOINT Head
				{
					OFFSET 0.104070 1.761360 -0.123970 
					CHANNELS 3 Zrotation Yrotation Xrotation
					End Site
					{
						OFFSET 0.000000 0.000000 0.000000 
					}
				}
			}
			JOINT LeftArm
			{
				OFFSET 3.362410 1.200890 -0.311210 
				CHANNELS 3 Zrotation Yrotation Xrotation
				JOINT LeftForeArm
				{
					OFFSET 4.983000 -0.000000 -0.000000 
					CHANNELS 3 Zrotation Yrotation Xrotation
					JOINT LeftHand
					{
						OFFSET 3.483560 -0.000000 -0.000000 
						CHANNELS 3 Zrotation Yrotation Xrotation
						JOINT LeftHandIndex1
						{
							OFFSET 0.715260 -0.000000 -0.000000 
							CHANNELS 3 Zrotation Yrotation Xrotation
							End Site
							{
								OFFSET 0.000000 0.000000 0.000000 
							}
						}
					}
				}
			}
			JOINT RightArm
			{
				OFFSET -3.136600 1.374050 -0.404650 
				CHANNELS 3 Zrotation Yrotation Xrotation
				JOINT RightForeArm
				{
					OFFSET -5.241900 -0.000000 -0.000000 
					CHANNELS 3 Zrotation Yrotation Xrotation
					JOINT RightHand
					{
						OFFSET -3.444170 -0.000000 -0.000000 
						CHANNELS 3 Zrotation Yrotation Xrotation
						JOINT RightHandIndex1
						{
							OFFSET -0.622530 -0.000000 -0.000000 
							CHANNELS 3 Zrotation Yrotation Xrotation
							End Site
							{
								OFFSET 0.000000 0.000000 0.000000 
							}
						}
					}
				}
			}
		}
	}
}
MOTION
Frames: 10
Frame Time: 0.041667
-23.894582 17.390403 7.337734 -173.049075 -21.929658 -172.367795 -6.231982 -25.387159 -6.163758 -8.845167 3.906543 9.466622 -5.379002 18.788137 -5.678196 12.498400 -18.593500 -67.560200 54.854605 34.374531 17.292700 14.114267 6.941750 -12.371982 -5.946750 -25.352617 -58.367983 -1.744100 -8.311400 23.664000 1.969884 0.949678 -4.356247 4.274926 0.282054 -14.951695 11.323931 -9.383272 11.645174 4.296500 -4.346900 11.014900 -30.826175 -0.044298 -25.842302 147.956821 -36.880131 -110.475597 -0.817789 -0.371280 37.029023 -7.125000 0.000000 0.000000 30.356501 -14.775058 -31.376196 -145.721477 39.840987 -108.319871 2.101103 -0.078184 13.797731 7.125000 0.000000 0.000000 
-23.886922 17.391498 7.343862 -173.084157 -22.002393 -172.286417 -6.202628 -25.451662 -6.234437 -8.850438 3.896615 9.378846 -5.426483 18.929591 -5.603686 12.497900 -18.593300 -67.558600 54.740564 34.329177 17.131242 14.106917 6.925556 -12.386667 -5.920930 -25.310582 -58.314038 -1.736400 -8.294000 23.610500 1.930304 1.000844 -4.344788 4.183243 0.300140 -14.960687 11.428441 -9.276092 11.692906 4.448100 -4.330300 11.020000 -30.758145 -0.100126 -25.819884 147.880574 -36.959769 -110.427418 -0.819414 -0.368880 37.090599 -7.125000 0.000000 0.000000 30.307344 -14.818598 -31.369577 -145.727459 39.844309 -108.330314 2.096974 -0.081799 13.786701 7.125000 0.000000 0.000000 
-23.880465 17.392811 7.348787 -173.105471 -22.055282 -172.239931 -6.180469 -25.533237 -6.254852 -8.857143 3.876892 9.300214 -5.432697 18.952421 -5.617040 12.456800 -18.577100 -67.429500 54.657284 34.279441 16.998865 14.106212 6.902674 -12.376790 -5.895264 -25.293573 -58.257850 -1.716300 -8.248400 23.471100 1.897224 1.055038 -4.331335 4.094611 0.317324 -14.965496 11.506989 -9.168057 11.747471 4.580000 -4.312600 11.028600 -30.733098 -0.175293 -25.764032 147.826964 -37.010823 -110.393325 -0.823675 -0.365811 37.214891 -7.125000 0.000000 0.000000 30.283344 -14.819589 -31.340359 -145.735635 39.842872 -108.342958 2.095608 -0.094766 13.817796 7.125000 0.000000 0.000000 
-23.875103 17.394233 7.352617 -173.118506 -22.094329 -172.221390 -6.164533 -25.621065 -6.239491 -8.864845 3.849946 9.229092 -5.404482 18.876051 -5.693366 12.385900 -18.549100 -67.206900 54.604366 34.223293 16.893887 14.110931 6.874613 -12.346036 -5.875413 -25.279903 -58.206496 -1.690700 -8.189800 23.292100 1.872367 1.106764 -4.317436 4.010855 0.331816 -14.960098 11.522058 -9.074747 11.817194 4.656300 -4.296300 11.048500 -30.723447 -0.239483 -25.716388 147.801593 -37.032607 -110.376231 -0.827546 -0.363617 37.333086 -7.125000 0.000000 0.000000 30.279594 -14.779126 -31.291474 -145.741652 39.839468 -108.353916 2.096054 -0.111504 13.884087 7.125000 0.000000 0.000000 
-23.870616 17.395437 7.355243 -173.123830 -22.127896 -172.222517 -6.156896 -25.697489 -6.206668 -8.872598 3.821174 9.165955 -5.376864 18.800863 -5.765543 12.336600 -18.529400 -67.051900 54.578908 34.155686 16.815643 14.119690 6.845044 -12.302561 -5.861398 -25.259813 -58.156392 -1.668400 -8.138200 23.134700 1.856820 1.148467 -4.305160 3.936604 0.340440 -14.945248 11.470516 -9.007006 11.905349 4.672300 -4.285900 11.083500 -30.730963 -0.271047 -25.691265 147.811956 -37.019930 -110.380019 -0.830434 -0.362962 37.419600 -7.125000 0.000000 0.000000 30.275118 -14.708443 -31.224595 -145.744349 39.836103 -108.360927 2.097055 -0.126025 13.962814 7.125000 0.000000 0.000000 
-23.867443 17.396203 7.356338 -173.127177 -22.158274 -172.236263 -6.158150 -25.754347 -6.168913 -8.879544 3.795435 9.114193 -5.367008 18.776426 -5.803072 12.323200 -18.524000 -67.009800 54.572831 34.078092 16.762612 14.131187 6.819577 -12.259400 -5.844001 -25.255577 -58.098046 -1.654200 -8.105200 23.034000 1.851852 1.174355 -4.297131 3.882655 0.341578 -14.924919 11.368372 -8.958310 12.019046 4.641800 -4.279800 11.138100 -30.760554 -0.253984 -25.682756 147.848358 -36.983189 -110.399553 -0.832370 -0.363683 37.471272 -7.125000 0.000000 0.000000 30.238649 -14.626979 -31.141969 -145.743473 39.834242 -108.362434 2.097133 -0.132011 14.024214 7.125000 0.000000 0.000000 
-23.865473 17.396532 7.355681 -173.131066 -22.184127 -172.254841 -6.168025 -25.790840 -6.130779 -8.885532 3.775249 9.077315 -5.374244 18.800770 -5.806578 12.345300 -18.532800 -67.079100 54.578010 33.992741 16.736028 14.143790 6.802592 -12.226071 -5.818800 -25.277223 -58.026435 -1.648500 -8.091900 22.993500 1.856243 1.186514 -4.295073 3.843291 0.336333 -14.901880 11.193170 -8.920932 12.155127 4.546800 -4.274200 11.203200 -30.800704 -0.199183 -25.673756 147.897529 -36.933609 -110.427983 -0.832727 -0.365529 37.486449 -7.125000 0.000000 0.000000 30.162785 -14.558258 -31.057783 -145.741408 39.832872 -108.359695 2.096036 -0.128555 14.052231 7.125000 0.000000 0.000000 
-23.864488 17.396203 7.352836 -173.131339 -22.205477 -172.280143 -6.179114 -25.797846 -6.099126 -8.887971 3.763798 9.063135 -5.392633 18.854165 -5.773207 12.368200 -18.542000 -67.151100 54.598900 33.899002 16.738479 14.157197 6.796068 -12.205748 -5.787386 -25.315914 -57.941335 -1.650400 -8.096400 23.007400 1.864460 1.194447 -4.296614 3.806705 0.328148 -14.879569 11.005093 -8.882903 12.286837 4.434700 -4.267000 11.256900 -30.825965 -0.141672 -25.653583 147.944136 -36.885751 -110.456118 -0.830871 -0.368171 37.462423 -7.125000 0.000000 0.000000 30.059472 -14.517103 -30.997627 -145.732389 39.839570 -108.349975 2.093533 -0.117981 14.049204 7.125000 0.000000 0.000000 
-23.864160 17.395328 7.347692 -173.120213 -22.224207 -172.317742 -6.182137 -25.777906 -6.073573 -8.885162 3.759774 9.070278 -5.422412 18.934565 -5.699384 12.409600 -18.558500 -67.281300 54.645771 33.797509 16.764728 14.172424 6.796734 -12.193711 -5.751653 -25.371533 -57.846431 -1.657600 -8.113200 23.058300 1.871318 1.207542 -4.298213 3.760388 0.320233 -14.852803 10.862853 -8.855227 12.398817 4.347600 -4.262700 11.297200 -30.811153 -0.112228 -25.621262 147.977541 -36.850431 -110.476870 -0.826497 -0.371121 37.403977 -7.125000 0.000000 0.000000 29.965045 -14.510903 -30.988137 -145.710236 39.861153 -108.331158 2.090147 -0.103808 14.030963 7.125000 0.000000 0.000000 
-23.864269 17.394015 7.340579 -173.097957 -22.244711 -172.367438 -6.177058 -25.737412 -6.049947 -8.877926 3.759542 9.090677 -5.461957 19.037913 -5.582266 12.475700 -18.584600 -67.488800 54.718086 33.686052 16.807817 14.190621 6.800712 -12.183647 -5.711047 -25.446702 -57.741379 -1.663300 -8.126300 23.098400 1.873929 1.228319 -4.298021 3.689864 0.312843 -14.810277 10.739091 -8.861751 12.498545 4.257300 -4.266700 11.338400 -30.743975 -0.131783 -25.576409 147.999357 -36.823960 -110.491213 -0.819512 -0.373994 37.326138 -7.125000 0.000000 0.000000 29.918300 -14.536106 -31.047865 -145.674442 39.896064 -108.304971 2.086431 -0.090252 14.005499 7.125000 0.000000 0.000000 
